<mxfile host="65bd71144e">
    <diagram id="n79OuvyTk8ADVR4FziIN" name="Page-1">
        <mxGraphModel dx="850" dy="423" grid="1" gridSize="10" guides="1" tooltips="1" connect="1" arrows="1" fold="1" page="1" pageScale="1" pageWidth="850" pageHeight="1100" math="0" shadow="0">
            <root>
                <mxCell id="0"/>
                <mxCell id="1" parent="0"/>
                <mxCell id="2" value="" style="rounded=0;whiteSpace=wrap;html=1;fillColor=#1ba1e2;fontColor=#ffffff;strokeColor=#006EAF;" vertex="1" parent="1">
                    <mxGeometry x="260" y="270" width="280" height="240" as="geometry"/>
                </mxCell>
                <mxCell id="3" value="&lt;b&gt;&lt;i&gt;&lt;font style=&quot;font-size: 35px;&quot;&gt;Data&lt;/font&gt;&lt;/i&gt;&lt;/b&gt;" style="rounded=0;whiteSpace=wrap;html=1;fillColor=#d80073;fontColor=#ffffff;strokeColor=#A50040;" vertex="1" parent="1">
                    <mxGeometry x="340" y="300" width="120" height="60" as="geometry"/>
                </mxCell>
                <mxCell id="5" value="&lt;b&gt;&lt;i&gt;&lt;font style=&quot;font-size: 35px;&quot;&gt;Function&lt;/font&gt;&lt;/i&gt;&lt;/b&gt;" style="rounded=0;whiteSpace=wrap;html=1;fillColor=#008a00;fontColor=#ffffff;strokeColor=#005700;" vertex="1" parent="1">
                    <mxGeometry x="322.5" y="420" width="162.5" height="60" as="geometry"/>
                </mxCell>
                <mxCell id="6" value="&lt;b&gt;&lt;i&gt;&lt;u&gt;Object&lt;/u&gt;&lt;/i&gt;&lt;/b&gt;" style="rounded=0;whiteSpace=wrap;html=1;fontSize=35;strokeWidth=1;fillColor=#e51400;fontColor=#ffffff;strokeColor=#B20000;" vertex="1" parent="1">
                    <mxGeometry x="340" y="210" width="120" height="60" as="geometry"/>
                </mxCell>
            </root>
        </mxGraphModel>
    </diagram>
</mxfile>